<?xml version="1.0" encoding="iso-8859-1"?>
<!-- Generator: Adobe Illustrator 16.0.0, SVG Export Plug-In . SVG Version: 6.00 Build 0)  -->
<svg xmlns="http://www.w3.org/2000/svg" viewBox="0 0 637.8 879.31"><defs><style>.cls-1{fill:#fff;}.cls-2{fill:#01a0c6;fill-rule:evenodd;}</style></defs><title>Heracles_Almelo</title><g id="Wapenvorm"><path class="cls-1" d="M576,606.46c-28.57,54.41-66.64,101-104.71,139C395.17,821.3,318.9,863.05,318.9,863.05S242.63,821.3,166.52,745.42c-38.06-38-76.14-84.54-104.71-139S14.17,489.82,14.17,420.64c0-37.15,7.09-406.47,7.09-406.47H616.54s7.08,369.32,7.09,406.47C623.62,489.82,604.55,552.07,576,606.46Z"/><path d="M630.71,0H7.09S0,380.17,0,418.87c0,72.06,19.13,136.91,48.9,193.57s70.19,105.21,109.84,144.75C238,836.24,318.9,879.31,318.9,879.31s80.87-42.92,160.16-122c39.65-39.54,80.08-88.21,109.84-144.89s48.9-121.51,48.9-193.57C637.79,380.17,630.71,0,630.71,0ZM576,606.46c-28.57,54.41-66.64,101-104.71,139C395.17,821.3,318.9,863.05,318.9,863.05S242.63,821.3,166.52,745.42c-38.06-38-76.14-84.54-104.71-139S14.17,489.82,14.17,420.64c0-37.15,7.09-406.47,7.09-406.47H616.54s7.08,369.32,7.09,406.47C623.62,489.82,604.55,552.07,576,606.46Z"/><path d="M588.31,42.52H49.48S40.75,387.9,40.75,421.81c0,63.14,17.41,120,43.49,169.62,6.52,12.41,13.57,24.38,21,35.88L116.93,202h67.32l-3.54,172.11a159.13,159.13,0,0,0-3.15,153.22l-3.8,184.85q3,3.09,6,6.11A717.17,717.17,0,0,0,263,789.13l5-201.4a143.74,143.74,0,0,1-92.66-134.19c0-63.76,41.81-117.93,99.44-136.57l1.54-61.46h85L363,317c57.64,18.64,99.44,72.81,99.44,136.57a143.74,143.74,0,0,1-92.66,134.19l5,201.4A717.33,717.33,0,0,0,458,718.27q3-3,6-6.11l-3.8-184.85a159.13,159.13,0,0,0-3.15-153.22L453.54,202h67.32l11.65,425.35c7.46-11.51,14.52-23.47,21-35.88C579.64,541.78,597,485,597,421.81,597,387.9,588.31,42.52,588.31,42.52Z"/></g><g id="Wiebertjes"><polygon class="cls-2" points="318.89 744.68 301.18 789.09 318.89 833.51 336.61 789.09 318.89 744.68"/><polygon class="cls-2" points="294.09 682.31 276.38 726.73 294.09 771.15 311.81 726.73 294.09 682.31"/><polygon class="cls-2" points="343.69 682.31 325.98 726.73 343.69 771.15 361.42 726.73 343.69 682.31"/></g><g id="God"><path d="M318.89,321.73c-72.68,0-131.81,59.13-131.81,131.81s59.13,131.81,131.81,131.81,131.81-59.13,131.81-131.81S391.58,321.73,318.89,321.73Zm0,255.83a124,124,0,1,1,124-124A124.16,124.16,0,0,1,318.89,577.56Z"/><polygon points="374.48 440.6 378.71 463.52 379.92 455.32 378.26 450.52 382.84 437.39 374.48 440.6"/><polygon points="356.51 452.64 365.16 448.65 367.06 440.33 352.62 434.41 341 438.23 335.87 444.46 339.5 449.53 344.3 446.52 353.38 447.6 356.51 452.64"/><polygon points="320.12 458.39 315.89 470.72 337.73 468.31 345.84 470.72 347.19 465.36 337.87 462.85 320.12 458.39"/><polygon points="398.11 397.33 395.19 391.49 393.51 395.16 391.56 400.62 385.07 405.12 383.95 415.08 387.38 418.52 389.43 417.92 388.25 431.26 394.23 422.63 400.09 406.86 398.11 397.33"/><polygon points="222.05 469.29 248.6 441.65 270.16 429.88 270.16 415.33 259.13 400.08 235.85 410.34 235.64 410.6 220.6 424.34 207.02 426.75 204.03 448.99 212.04 455.25 206.68 478.6 222.05 469.29"/><polygon points="268.52 358.4 278.87 353.53 294.78 355.66 300.44 363.95 320.31 363.95 306.89 352.72 284.5 349.11 271.56 348.76 258.77 355.65 237.17 372.78 225.82 386.11 262.02 368.98 268.52 358.4"/><polygon points="261.02 377.03 220.62 393.81 220.67 403.64 210.16 416.23 259.06 390.21 261.02 377.03"/><polygon points="305.33 465.98 312.99 455.92 299.01 451.71 292.1 449.2 277.01 469.66 261.97 506.29 265.56 513.39 253.82 526.2 246.57 542.85 262.63 553.7 268.96 550.35 278.84 561.32 285.54 539.65 291.43 494.08 294.54 480.21 305.33 465.98"/><polygon points="285.36 445.38 272.13 437.75 257.5 453.12 225.74 483.27 222.48 499.73 216.96 506.62 234.45 531.52 270.33 456.48 285.36 445.38"/><polygon points="326.64 534.83 323.53 519.41 298.4 511.12 293.21 565.66 310.05 566.1 327.22 568.22 356.55 562.14 347.61 538.24 326.64 534.83"/><path d="M384.55,508.54l-.09-.13L378,499l.84-2.26-.21-4.93-.79-5.53L374.44,476l3-8.21-15.07.49,6.77,8.1-6,1-6.44,6.43-6.38-2.08L344.58,480l-.77,11.18-4.62-.45-3.33-10.63-2.38,8.83-6.7-8.67-18.43-3-7.06,12.92-1.55,9.6,21.83,9.95L340,521.23l27.41,16.94,20.95-5.69,2.57-6.76-4.77-8.91ZM369,489.37l-12.48,3.79-.17-1,6-6.37,8.38-.93Z"/><path d="M382.14,400.67l6.15-4-2-9.12-.81-4.27-11-2.41-4.69-2.5-19.15-2.18-14.53,1.55-4.61-5.56-15.39-1-17.7,1.44-8.29-9.19-8.22-1.95-8.52,4.91-5.78,13.75,1.5,16.36,7.68,11.15,4.36,24.29,15.69,7,20.63-2.09,8.86-15.14,19.17-.87,6.89-9.85,1.41,18.81L362.69,419l12.12-4.29,4.12-2.9,2-5.9-11.37-8,1.41-5.74,5.42,4,1.66-9.73,3.44.06-2.6,11.09Zm-95-13.92-7.36-13.17,9.06,2.19Zm38.3-1.48-6.95-2.55-8.09-2.89,2.5-.94,15.62-.91,1.83,6Z"/></g><g id="Typografie"><path class="cls-1" d="M282.12,207.94l-5.74,3.92v-5.65l5.74-3.92h5.74v37.27h-5.74Z"/><path class="cls-1" d="M305.42,223.9l-.11-.1a2.32,2.32,0,0,1-.87.34,7.4,7.4,0,0,1-1.55.13,5.94,5.94,0,0,1-2.81-.68,5.53,5.53,0,0,1-2-1.73,4.37,4.37,0,0,1-.62-1.13,7.73,7.73,0,0,1-.37-1.54,22.1,22.1,0,0,1-.2-2.38q-.06-1.44-.06-3.64,0-1.83.06-3a16.11,16.11,0,0,1,.2-2,6,6,0,0,1,.4-1.39,9.25,9.25,0,0,1,.65-1.2,7.55,7.55,0,0,1,3-2.67,9.38,9.38,0,0,1,4.25-.94,9,9,0,0,1,4.22,1,8,8,0,0,1,3,2.64,13.59,13.59,0,0,1,.67,1.2,5.13,5.13,0,0,1,.42,1.39,16.71,16.71,0,0,1,.2,2q.06,1.18.06,3t-.06,2.85a16.48,16.48,0,0,1-.2,1.94,12.32,12.32,0,0,1-.34,1.47q-.2.65-.48,1.39l-7.54,18.74h-6.42Zm-2.87-7a2.44,2.44,0,0,0,.84,1.94,3,3,0,0,0,3.94,0,2.44,2.44,0,0,0,.84-1.94V210a2.44,2.44,0,0,0-.84-1.94,3,3,0,0,0-3.94,0,2.44,2.44,0,0,0-.84,1.94Z"/><path class="cls-1" d="M320.56,210a7.67,7.67,0,0,1,.7-3.35,7.86,7.86,0,0,1,1.89-2.51,8.22,8.22,0,0,1,2.73-1.6,9.81,9.81,0,0,1,6.47,0,8.27,8.27,0,0,1,2.73,1.6,7.87,7.87,0,0,1,1.88,2.51,7.64,7.64,0,0,1,.7,3.35v21.88a7.63,7.63,0,0,1-.7,3.35,7.87,7.87,0,0,1-1.88,2.51,8.26,8.26,0,0,1-2.73,1.6,9.81,9.81,0,0,1-6.47,0,8.21,8.21,0,0,1-2.73-1.6,7.86,7.86,0,0,1-1.89-2.51,7.66,7.66,0,0,1-.7-3.35Zm5.74,21.88a2.54,2.54,0,0,0,.79,1.91,3.09,3.09,0,0,0,4.05,0,2.54,2.54,0,0,0,.79-1.91V210a2.55,2.55,0,0,0-.79-1.91,3.09,3.09,0,0,0-4.05,0,2.54,2.54,0,0,0-.79,1.91Z"/><path class="cls-1" d="M351.12,218a7.74,7.74,0,0,0,3.57-.58q1-.58,1-2.67v-4.82a2.5,2.5,0,0,0-.76-1.88,2.84,2.84,0,0,0-2.05-.73,2.5,2.5,0,0,0-2.17.89,3,3,0,0,0-.65,1.73v3h-5.74v-3.09a7.31,7.31,0,0,1,.68-3.09,7.53,7.53,0,0,1,1.86-2.51,9.26,9.26,0,0,1,2.76-1.68A9,9,0,0,1,353,202a8,8,0,0,1,3.91.86,8.92,8.92,0,0,1,2.34,1.75,10.28,10.28,0,0,1,1,1.28,5.69,5.69,0,0,1,.68,1.52,12.74,12.74,0,0,1,.4,2.09,27.4,27.4,0,0,1,.14,3q0,1.94-.09,3.14a5.87,5.87,0,0,1-.45,2,3.81,3.81,0,0,1-1.07,1.39,13,13,0,0,1-1.94,1.26,10.93,10.93,0,0,1,2.05,1.47,4.24,4.24,0,0,1,1,1.6,7.34,7.34,0,0,1,.39,2.2q.06,1.28.06,3.27,0,1.83-.09,3a15.09,15.09,0,0,1-.25,2,5.89,5.89,0,0,1-.45,1.39,8.54,8.54,0,0,1-.73,1.2,8.15,8.15,0,0,1-7.09,3.4,10.82,10.82,0,0,1-2.87-.42,8,8,0,0,1-2.76-1.36,7.5,7.5,0,0,1-2.05-2.46,7.76,7.76,0,0,1-.82-3.72v-3H350v2.77a2.91,2.91,0,0,0,.76,2.07,3,3,0,0,0,4.11,0,3,3,0,0,0,.76-2.17V226.2a6.52,6.52,0,0,0-.2-1.78,2,2,0,0,0-.7-1.07,2.94,2.94,0,0,0-1.38-.52,16.21,16.21,0,0,0-2.28-.13Z"/><path class="cls-1" d="M77.19,70.87H92v44h18.27v-44h14.8V173.62h-14.8V127.87H92v45.75H77.19Z"/><path class="cls-1" d="M146.95,70.87H191V84.72h-29.3v30.17h25.53v13.85H161.74V158.9H191v14.72H146.95Z"/><path class="cls-1" d="M209.59,70.87h23.79q26.11,0,26.11,30.16a37.93,37.93,0,0,1-2.83,15.37,21.79,21.79,0,0,1-9.93,10.32l16,46.9H247l-13.78-43.87h-8.85v43.87h-14.8Zm14.8,45.89h8.41a15,15,0,0,0,6.24-1.08,8,8,0,0,0,3.55-3.1,13.22,13.22,0,0,0,1.67-5,54.34,54.34,0,0,0,0-13.71,12.36,12.36,0,0,0-1.81-5.05,8.2,8.2,0,0,0-3.84-3.1,17.55,17.55,0,0,0-6.53-1h-7.69Z"/><path class="cls-1" d="M295.55,70.87h12.33l23.06,102.76H316.15l-4.35-22.08H291.64l-4.35,22.08H272.49Zm6.24,29.59h-.29l-7.25,37.23H309Z"/><path class="cls-1" d="M390.48,150.68a23.33,23.33,0,0,1-1.81,9.09,23.83,23.83,0,0,1-5,7.58,24.74,24.74,0,0,1-7.47,5.2,22,22,0,0,1-9.21,1.95,33.26,33.26,0,0,1-8.56-1.15,20.79,20.79,0,0,1-7.83-4,21.41,21.41,0,0,1-5.73-7.43,26.63,26.63,0,0,1-2.25-11.69V93.67a24.92,24.92,0,0,1,1.74-9.38,22.07,22.07,0,0,1,4.93-7.5,23,23,0,0,1,7.62-5,25.72,25.72,0,0,1,9.79-1.8,24.4,24.4,0,0,1,9.43,1.8,22.56,22.56,0,0,1,7.54,5.05,23.29,23.29,0,0,1,5,7.79,26.48,26.48,0,0,1,1.81,9.89v5.77H375.69V95.4a11.89,11.89,0,0,0-2.46-7.5,8,8,0,0,0-6.67-3.18q-5.51,0-7.33,3.39a18.1,18.1,0,0,0-1.81,8.59v52.53a13.56,13.56,0,0,0,2,7.5q2,3,7,3a10.75,10.75,0,0,0,3.12-.5,8.59,8.59,0,0,0,3-1.66,8.37,8.37,0,0,0,2.25-3.17,12.84,12.84,0,0,0,.87-5.05v-5.05h14.79Z"/><path class="cls-1" d="M407.8,70.87h14.79v88h26.47v14.72H407.8Z"/><path class="cls-1" d="M458.44,70.87h44.09V84.72h-29.3v30.17h25.53v13.85H473.23V158.9h29.3v14.72H458.44Z"/><path class="cls-1" d="M566.27,100.45h-14.8V97.13a15.65,15.65,0,0,0-2.39-8.73q-2.39-3.68-8-3.68a9.77,9.77,0,0,0-5,1.16,8.57,8.57,0,0,0-3,3A12.32,12.32,0,0,0,531.46,93a27.38,27.38,0,0,0-.43,5,50.3,50.3,0,0,0,.22,5.12,9,9,0,0,0,1.08,3.61,8.39,8.39,0,0,0,2.54,2.67,23.24,23.24,0,0,0,4.57,2.31l11.31,4.47a28.2,28.2,0,0,1,8,4.4,17.84,17.84,0,0,1,4.71,5.92,25,25,0,0,1,2.25,7.79,77.41,77.41,0,0,1,.58,10A52.56,52.56,0,0,1,565,156.38a25.29,25.29,0,0,1-4.28,9.53,20.49,20.49,0,0,1-7.9,6.28,28.3,28.3,0,0,1-12,2.31,26.46,26.46,0,0,1-10-1.88,23.79,23.79,0,0,1-13.27-12.85,23.82,23.82,0,0,1-2-9.67v-5.48H530.3v4.62a12,12,0,0,0,2.39,7.29q2.39,3.25,8.05,3.25a13,13,0,0,0,5.87-1.08,7.45,7.45,0,0,0,3.19-3,12.41,12.41,0,0,0,1.38-4.83q.29-2.89.29-6.35a62.56,62.56,0,0,0-.29-6.64,10.55,10.55,0,0,0-1.23-4.19,7.56,7.56,0,0,0-2.61-2.6,34.87,34.87,0,0,0-4.42-2.17l-10.59-4.33q-9.57-3.9-12.83-10.32t-3.26-16.09a37.13,37.13,0,0,1,1.6-11,25.49,25.49,0,0,1,4.71-8.95,22.42,22.42,0,0,1,7.9-6A26.16,26.16,0,0,1,541.61,70a24.68,24.68,0,0,1,10.08,2,25.11,25.11,0,0,1,7.83,5.34,23.72,23.72,0,0,1,5,7.43,21.45,21.45,0,0,1,1.75,8.44Z"/></g></svg>
